<svg width="55" height="32" viewBox="0 0 55 32" fill="none" xmlns="http://www.w3.org/2000/svg">
<path d="M44.7867 6.90521C44.7323 6.88839 44.6699 6.87206 44.6109 6.85524C44.5989 6.85207 44.5872 6.84866 44.5753 6.84549C43.7866 6.62632 42.6121 6.41911 41.2607 6.3584C39.9979 6.30136 38.5769 6.47469 37.599 6.64948C35.9612 6.94178 33.8807 7.30941 31.6735 6.79015C30.6344 6.54587 29.9584 6.2331 28.7397 5.41666C28.1807 5.04196 27.8075 4.78818 26.4113 3.64703L26.4103 3.64849C23.5214 1.3691 20.0567 0 16.8642 0C8.01078 0 0.833618 7.16338 0.833618 15.9999C0.833618 24.8366 8.01078 32 16.8642 32C18.7319 32.0039 20.494 31.7123 22.1216 31.1791L22.1218 31.2021C24.5078 30.3985 27.6383 29.1092 29.464 29.1092C31.8015 29.1092 33.0043 29.4943 34.6828 30.2986C35.5524 30.7155 36.6251 31.1443 37.5846 31.4239C37.5937 31.4266 37.6024 31.429 37.611 31.4317C37.6975 31.4566 37.7843 31.4824 37.8687 31.5048C38.9874 31.8249 40.1676 32 41.389 32C49.0505 32 54.167 26.349 54.167 19.2225C54.167 13.3426 50.1937 8.39352 44.7867 6.90521ZM11.932 8.22637C11.8478 8.22637 11.7791 8.15748 11.7791 8.07296V6.65641C11.7791 6.57165 11.8478 6.50277 11.932 6.50277H16.6103C16.6945 6.50277 16.7632 6.57165 16.7632 6.65641V8.07296C16.7632 8.15748 16.6945 8.22637 16.6103 8.22637H11.932ZM10.8633 15.2977C10.8633 13.4537 12.36 11.9533 14.1999 11.9533C16.0381 11.9533 17.5334 13.4537 17.5334 15.2977C17.5334 17.1444 16.0381 18.6462 14.1999 18.6462C12.36 18.6462 10.8633 17.1444 10.8633 15.2977ZM19.7695 23.5564H19.77C19.8282 23.5564 19.8757 23.6038 19.8757 23.6624V25.1979C19.8757 25.2565 19.8282 25.3042 19.77 25.3042H18.2664C16.6182 25.3042 15.3465 24.8515 14.4875 23.9582C13.6921 23.1313 13.2706 21.9317 13.2348 20.3925L13.2343 20.3683L13.2104 20.3637C10.8019 19.8905 9.05359 17.7602 9.05359 15.2977C9.05359 12.4526 11.3623 10.1376 14.1999 10.1376C17.0361 10.1376 19.3433 12.4526 19.3433 15.2977C19.3433 17.8171 17.5463 19.9553 15.0708 20.3818L15.0447 20.3864L15.0459 20.4126C15.0795 21.4605 15.3299 22.2346 15.7899 22.7129C16.2831 23.2261 17.1625 23.518 18.2659 23.5351C19.3611 23.552 19.7695 23.5564 19.7695 23.5564ZM26.9075 22.9137H26.908C26.9886 22.9137 27.0549 22.9794 27.0549 23.0601V24.5484C27.0549 24.6293 26.9891 24.695 26.9085 24.695H25.9831C23.2158 24.544 21.4963 22.5727 21.4963 19.5508V12.0628C21.4963 11.9822 21.5618 11.9162 21.6419 11.9162H23.1601C23.2407 11.9162 23.3062 11.9822 23.3062 12.0628V19.5508C23.3062 22.1269 24.7881 22.817 26.032 22.8854L26.9075 22.9137ZM29.8222 19.4897C29.8222 17.684 31.2873 16.2152 33.088 16.2152C34.8877 16.2152 36.3518 17.684 36.3518 19.4897C36.3518 21.2973 34.8877 22.7676 33.088 22.7676C31.2873 22.7676 29.8222 21.2973 29.8222 19.4897ZM28.0121 19.4897C28.0121 16.683 30.2893 14.3995 33.088 14.3995C35.8855 14.3995 38.1617 16.683 38.1617 19.4897C38.1617 22.2981 35.8855 24.5833 33.088 24.5833C30.2893 24.5833 28.0121 22.2981 28.0121 19.4897ZM30.7255 12.9205C30.6412 12.9205 30.5725 12.8517 30.5725 12.7671V11.3504C30.5725 11.2661 30.6412 11.1969 30.7255 11.1969H35.4022C35.487 11.1969 35.5557 11.2661 35.5557 11.3504V12.7671C35.5557 12.8517 35.487 12.9205 35.4022 12.9205H30.7255ZM39.387 16.8618C39.387 14.9525 40.8406 13.4571 42.6961 13.4571C44.5508 13.4571 46.004 14.9525 46.004 16.8618V25.0061C46.004 25.0562 45.9636 25.097 45.9134 25.097H44.2844C44.2345 25.097 44.1938 25.0562 44.1938 25.0061V16.8618C44.1938 15.9557 43.5499 15.2725 42.6961 15.2725C41.8418 15.2725 41.1971 15.9557 41.1971 16.8618V25.0061C41.1971 25.0562 41.1565 25.097 41.1066 25.097H39.4776C39.4276 25.097 39.387 25.0562 39.387 25.0061V16.8618Z" fill="white"/>
</svg>
