<svg width="12" height="12" viewBox="0 0 12 12" fill="none" xmlns="http://www.w3.org/2000/svg">
<path d="M8.1227 1.93627H9.1277C9.73216 1.93627 10.2423 2.38595 10.3182 2.98569L11.2876 10.6495C11.3782 11.3663 10.8196 12.0001 10.097 12.0001H1.36717C0.644671 12.0001 0.0859977 11.3663 0.176658 10.6495L1.14605 2.98569C1.22191 2.38595 1.73204 1.93627 2.33656 1.93627H3.34377C3.57957 0.83392 4.55756 0 5.73243 0C6.9079 0 7.8895 0.83022 8.1227 1.93627ZM3.2896 2.96485H2.33656C2.2502 2.96485 2.17732 3.02908 2.16649 3.11476L1.1971 10.7786C1.18415 10.881 1.26396 10.9715 1.36717 10.9715H10.097C10.2003 10.9715 10.2801 10.881 10.2672 10.7786L9.29776 3.11476C9.2869 3.02908 9.21403 2.96485 9.1277 2.96485H8.1753V4.38655C8.1753 4.6706 7.94503 4.90087 7.66103 4.90087C7.37696 4.90087 7.14676 4.6706 7.14676 4.38655V2.96485H4.31816V4.38655C4.31816 4.6706 4.08791 4.90087 3.80388 4.90087C3.51985 4.90087 3.2896 4.6706 3.2896 4.38655V2.96485ZM4.41403 1.93627H7.0533C6.84956 1.40541 6.33503 1.02857 5.73243 1.02857C5.13396 1.02857 4.61976 1.40575 4.41403 1.93627Z" fill="#3D3D3D"/>
</svg>
