<svg width="17" height="16" viewBox="0 0 17 16" fill="none" xmlns="http://www.w3.org/2000/svg">
<path d="M0.726526 14.6781C0.424166 14.9805 0.424166 15.4707 0.726526 15.7731C1.02889 16.0754 1.51911 16.0754 1.82147 15.7731L8.49975 9.0948L15.1783 15.7734C15.4807 16.0758 15.9709 16.0758 16.2733 15.7734C16.5756 15.4711 16.5756 14.9809 16.2733 14.6785L9.59465 7.9999L16.2733 1.32123C16.5756 1.01886 16.5756 0.528642 16.2733 0.226282C15.9709 -0.0760783 15.4807 -0.0760783 15.1783 0.226282L8.49975 6.9049L1.82147 0.226642C1.51911 -0.0757183 1.02889 -0.0757183 0.726526 0.226642C0.424166 0.529002 0.424166 1.01922 0.726526 1.32158L7.40485 7.9999L0.726526 14.6781Z" fill="white"/>
</svg>
