<svg width="161" height="24" viewBox="0 0 161 24" fill="none" xmlns="http://www.w3.org/2000/svg">
<g clip-path="url(#clip0_316_14799)">
<path d="M73.2925 23.5946C73.9461 23.9449 74.6915 24.086 75.4279 23.9987H76.0067V0.272476H72.393V21.8803C72.3802 22.2197 72.4565 22.5565 72.6143 22.8573C72.7721 23.1581 73.0059 23.4123 73.2925 23.5946Z" fill="white"/>
<path d="M130.367 0.268562L122.415 23.9948H124.99C125.347 23.9736 125.688 23.8388 125.964 23.6102C126.239 23.3816 126.435 23.0711 126.521 22.7238L128.216 17.4245H136.836L136.867 17.4805L138.692 22.7238C138.755 23.0695 138.934 23.3836 139.198 23.6147C139.463 23.8458 139.798 23.9803 140.15 23.9961H142.962L134.726 0.269875L130.367 0.268562ZM132.474 4.13906L135.799 14.2175H129.242L132.474 4.13906Z" fill="white"/>
<path d="M32.5784 13.2541H40.9556C41.2532 13.2647 41.5483 13.1964 41.8109 13.056C42.0736 12.9157 42.2944 12.7083 42.4509 12.455C42.751 11.8731 42.8717 11.2152 42.7977 10.5647V10.0563H32.5784V3.47421H41.6687C41.9643 3.4864 42.2579 3.4192 42.5187 3.27959C42.7796 3.13997 42.9984 2.93305 43.1522 2.6803C43.4518 2.09402 43.5724 1.43258 43.499 0.778293V0.269875H29.0586V23.9961H42.1719C42.4696 24.0061 42.7646 23.9376 43.0274 23.7973C43.2901 23.657 43.5113 23.45 43.6685 23.197C43.969 22.6134 44.0896 21.9537 44.0152 21.3015V20.793H32.5914L32.5784 13.2541Z" fill="white"/>
<path d="M108.402 13.2541H116.767C117.065 13.2647 117.36 13.1964 117.623 13.056C117.885 12.9157 118.106 12.7083 118.263 12.455C118.563 11.8731 118.684 11.2152 118.609 10.5647V10.0563H108.402V3.47421H117.481C117.778 3.48483 118.073 3.4165 118.336 3.27614C118.599 3.13578 118.819 2.92841 118.976 2.67509C119.276 2.09148 119.397 1.43181 119.323 0.779582V0.271164H104.87V23.9974H117.657C117.954 24.0083 118.25 23.94 118.513 23.7997C118.776 23.6593 118.997 23.4518 119.153 23.1983C119.439 22.6098 119.554 21.9534 119.487 21.3028V20.7944H108.406L108.402 13.2541Z" fill="white"/>
<path d="M149.988 0H146.457V24H159.043C159.345 24.0089 159.644 23.9355 159.907 23.7876C160.171 23.6397 160.389 23.4229 160.538 23.1605C160.84 22.5393 160.96 21.8457 160.885 21.1594V20.621H149.988V0Z" fill="white"/>
<path d="M85.2912 0.268562H81.7596V21.8764C81.7457 22.2148 81.819 22.5512 81.9724 22.8532C82.1258 23.1552 82.3542 23.4127 82.6357 23.6011C83.2742 23.943 84.0018 24.0822 84.7215 24H85.2912V13.2541H95.487V21.8764C95.4735 22.2165 95.5494 22.5541 95.7073 22.8556C95.8651 23.1571 96.0993 23.4119 96.3864 23.5946C97.041 23.942 97.7855 24.0829 98.5218 23.9987H99.1006V0.272481H95.487V10.0237H85.2912V0.268562Z" fill="white"/>
<path d="M57.4037 0.275057H48.7697V24.0013H57.2811C59.1494 24.1162 61.0089 23.6655 62.6174 22.7082C64.2258 21.7508 65.5085 20.3312 66.2984 18.6342C67.279 16.5016 67.769 14.1762 67.7324 11.8292C67.8506 8.97742 66.997 6.17003 65.3115 3.86659C64.363 2.69483 63.1545 1.76017 61.7818 1.13676C60.4092 0.513344 58.9102 0.218317 57.4037 0.275057ZM63.8593 14.8367C63.6596 16.0759 63.2089 17.2612 62.5348 18.32C61.7861 19.3508 60.6974 20.084 59.4608 20.3902C58.5734 20.6616 57.6511 20.8021 56.7232 20.8074H52.3742V3.46897H56.7714C57.8409 3.39655 58.9119 3.58496 59.8924 4.01801C60.873 4.45105 61.7337 5.11577 62.4005 5.95501C63.6327 7.85716 64.2225 10.1042 64.0835 12.3663C64.0761 13.1945 64.0011 14.0207 63.8593 14.8367Z" fill="white"/>
<path d="M11.6407 15.6228L19.576 0.268562H23.2861V23.9948H22.6499C21.9248 24.0786 21.1913 23.9395 20.5472 23.5959C20.2602 23.4119 20.0264 23.156 19.8688 22.8537C19.7112 22.5513 19.6355 22.2131 19.649 21.8725V7.45944L14.0159 18.2797C13.7736 18.7057 13.425 19.0617 13.0042 19.313C12.5834 19.5643 12.1047 19.7024 11.6146 19.7137C11.1318 19.7029 10.6604 19.5645 10.2482 19.3127C9.83612 19.0608 9.49795 18.7044 9.26808 18.2797L3.81235 7.80881L3.63506 7.48029V24.0104H3.07319C2.36015 24.095 1.63848 23.9556 1.00822 23.6115C0.724434 23.4247 0.493703 23.1678 0.338393 22.8656C0.183082 22.5635 0.108458 22.2263 0.12175 21.8868V0.268562H3.67156L11.6407 15.6228Z" fill="white"/>
</g>
<defs>
<clipPath id="clip0_316_14799">
<rect width="160.77" height="24" fill="white" transform="translate(0.115234)"/>
</clipPath>
</defs>
</svg>
